<?xml version="1.0" encoding="UTF-8"?>
<svg id="Layer_1" xmlns="http://www.w3.org/2000/svg" version="1.1" viewBox="0 0 134.7 134.7">
  <!-- Generator: Adobe Illustrator 30.3.0, SVG Export Plug-In . SVG Version: 2.1.3 Build 182)  -->
  <defs>
    <style>
      .st0 {
        fill: #ebe7e0;
      }

      .st1 {
        fill: #100c27;
      }
    </style>
  </defs>
  <rect class="st0" width="134.7" height="134.7"/>
  <g>
    <path class="st1" d="M36.5,81.7c1.4-.5,1.7-1.8,1.7-4.8v-19.1c0-3.1-.3-4.4-1.7-4.8v-.6h9c9.8,0,12,4.8,12,8.3,0,5.4-3.9,9.9-12.7,9.9h-2.1v6.4c0,3.1.3,4.4,1.7,4.8v.6h-8v-.6ZM52.7,61.7c0-3.7-1.8-8.8-8.6-8.8s-1,0-1.3,0v16.8h1.9c5.6,0,8-3.3,8-8.1Z"/>
    <path class="st1" d="M77.3,79.7l-.2-6.4h.6c1.8,4.8,5.6,8.6,11.3,8.6s5.7-1.9,5.7-5.4-5.5-6.2-9-7.6c-4.4-1.8-8.1-3.3-8.1-8.3s4.3-8.6,11-8.6,6,.7,8.2,1.8l.2,5.6-.5.2c-1.8-4.4-5.4-6.8-9.6-6.8s-6.1,2-6.1,5.4,4.3,5.4,7.8,6.7c4.4,1.7,9.6,3.6,9.6,8.8s-5.4,9.1-10.3,9.1-8.4-1.4-10.6-3Z"/>
  </g>
</svg>